<svg width="28" height="23" viewBox="0 0 28 23" fill="none" xmlns="http://www.w3.org/2000/svg">
<g filter="url(#filter0_d_4129_226)">
<path d="M24.5 0.25H3.5C3.26794 0.25 3.04538 0.342187 2.88128 0.506282C2.71719 0.670376 2.625 0.892936 2.625 1.125V16C2.625 16.4641 2.80937 16.9092 3.13756 17.2374C3.46575 17.5656 3.91087 17.75 4.375 17.75H23.625C24.0891 17.75 24.5342 17.5656 24.8624 17.2374C25.1906 16.9092 25.375 16.4641 25.375 16V1.125C25.375 0.892936 25.2828 0.670376 25.1187 0.506282C24.9546 0.342187 24.7321 0.25 24.5 0.25ZM22.2502 2L14 9.56328L5.74984 2H22.2502ZM23.625 16H4.375V3.11453L13.4083 11.3953C13.5697 11.5435 13.7809 11.6257 14 11.6257C14.2191 11.6257 14.4303 11.5435 14.5917 11.3953L23.625 3.11453V16Z" fill="#878EA1"/>
</g>
<defs>
<filter id="filter0_d_4129_226" x="-1.375" y="0.25" width="30.75" height="25.5" filterUnits="userSpaceOnUse" color-interpolation-filters="sRGB">
<feFlood flood-opacity="0" result="BackgroundImageFix"/>
<feColorMatrix in="SourceAlpha" type="matrix" values="0 0 0 0 0 0 0 0 0 0 0 0 0 0 0 0 0 0 127 0" result="hardAlpha"/>
<feOffset dy="4"/>
<feGaussianBlur stdDeviation="2"/>
<feComposite in2="hardAlpha" operator="out"/>
<feColorMatrix type="matrix" values="0 0 0 0 0 0 0 0 0 0 0 0 0 0 0 0 0 0 0.25 0"/>
<feBlend mode="normal" in2="BackgroundImageFix" result="effect1_dropShadow_4129_226"/>
<feBlend mode="normal" in="SourceGraphic" in2="effect1_dropShadow_4129_226" result="shape"/>
</filter>
</defs>
</svg>
