<svg width="48" height="41" viewBox="0 0 48 41" fill="none" xmlns="http://www.w3.org/2000/svg">
<g filter="url(#filter0_d_4112_231)">
<path d="M42 6.5H39V5C39 3.80653 38.5259 2.66193 37.682 1.81802C36.8381 0.974106 35.6935 0.5 34.5 0.5H7.5C6.30653 0.5 5.16193 0.974106 4.31802 1.81802C3.47411 2.66193 3 3.80653 3 5V23C3 24.1935 3.47411 25.3381 4.31802 26.182C5.16193 27.0259 6.30653 27.5 7.5 27.5H28.5V29C28.5 30.1935 28.9741 31.3381 29.818 32.182C30.6619 33.0259 31.8065 33.5 33 33.5H42C43.1935 33.5 44.3381 33.0259 45.182 32.182C46.0259 31.3381 46.5 30.1935 46.5 29V11C46.5 9.80653 46.0259 8.66193 45.182 7.81802C44.3381 6.97411 43.1935 6.5 42 6.5ZM7.5 24.5C7.10218 24.5 6.72064 24.342 6.43934 24.0607C6.15804 23.7794 6 23.3978 6 23V5C6 4.60218 6.15804 4.22064 6.43934 3.93934C6.72064 3.65804 7.10218 3.5 7.5 3.5H34.5C34.8978 3.5 35.2794 3.65804 35.5607 3.93934C35.842 4.22064 36 4.60218 36 5V6.5H33C31.8065 6.5 30.6619 6.97411 29.818 7.81802C28.9741 8.66193 28.5 9.80653 28.5 11V24.5H7.5ZM43.5 29C43.5 29.3978 43.342 29.7794 43.0607 30.0607C42.7794 30.342 42.3978 30.5 42 30.5H33C32.6022 30.5 32.2206 30.342 31.9393 30.0607C31.658 29.7794 31.5 29.3978 31.5 29V11C31.5 10.6022 31.658 10.2206 31.9393 9.93934C32.2206 9.65804 32.6022 9.5 33 9.5H42C42.3978 9.5 42.7794 9.65804 43.0607 9.93934C43.342 10.2206 43.5 10.6022 43.5 11V29ZM25.5 32C25.5 32.3978 25.342 32.7794 25.0607 33.0607C24.7794 33.342 24.3978 33.5 24 33.5H16.5C16.1022 33.5 15.7206 33.342 15.4393 33.0607C15.158 32.7794 15 32.3978 15 32C15 31.6022 15.158 31.2206 15.4393 30.9393C15.7206 30.658 16.1022 30.5 16.5 30.5H24C24.3978 30.5 24.7794 30.658 25.0607 30.9393C25.342 31.2206 25.5 31.6022 25.5 32ZM40.5 14C40.5 14.3978 40.342 14.7794 40.0607 15.0607C39.7794 15.342 39.3978 15.5 39 15.5H36C35.6022 15.5 35.2206 15.342 34.9393 15.0607C34.658 14.7794 34.5 14.3978 34.5 14C34.5 13.6022 34.658 13.2206 34.9393 12.9393C35.2206 12.658 35.6022 12.5 36 12.5H39C39.3978 12.5 39.7794 12.658 40.0607 12.9393C40.342 13.2206 40.5 13.6022 40.5 14Z" fill="#BB72E9"/>
</g>
<defs>
<filter id="filter0_d_4112_231" x="-1" y="0.5" width="51.5" height="41" filterUnits="userSpaceOnUse" color-interpolation-filters="sRGB">
<feFlood flood-opacity="0" result="BackgroundImageFix"/>
<feColorMatrix in="SourceAlpha" type="matrix" values="0 0 0 0 0 0 0 0 0 0 0 0 0 0 0 0 0 0 127 0" result="hardAlpha"/>
<feOffset dy="4"/>
<feGaussianBlur stdDeviation="2"/>
<feComposite in2="hardAlpha" operator="out"/>
<feColorMatrix type="matrix" values="0 0 0 0 0 0 0 0 0 0 0 0 0 0 0 0 0 0 0.25 0"/>
<feBlend mode="normal" in2="BackgroundImageFix" result="effect1_dropShadow_4112_231"/>
<feBlend mode="normal" in="SourceGraphic" in2="effect1_dropShadow_4112_231" result="shape"/>
</filter>
</defs>
</svg>
