<svg width="32" height="27" viewBox="0 0 32 27" fill="none" xmlns="http://www.w3.org/2000/svg">
<g filter="url(#filter0_d_2149_2161)">
<path d="M26 12H6C5.46957 12 4.96086 12.2107 4.58579 12.5858C4.21071 12.9609 4 13.4696 4 14V20C4 20.5304 4.21071 21.0391 4.58579 21.4142C4.96086 21.7893 5.46957 22 6 22H26C26.5304 22 27.0391 21.7893 27.4142 21.4142C27.7893 21.0391 28 20.5304 28 20V14C28 13.4696 27.7893 12.9609 27.4142 12.5858C27.0391 12.2107 26.5304 12 26 12ZM26 20H6V14H26V20ZM26 0H6C5.46957 0 4.96086 0.210714 4.58579 0.585786C4.21071 0.960859 4 1.46957 4 2V8C4 8.53043 4.21071 9.03914 4.58579 9.41421C4.96086 9.78929 5.46957 10 6 10H26C26.5304 10 27.0391 9.78929 27.4142 9.41421C27.7893 9.03914 28 8.53043 28 8V2C28 1.46957 27.7893 0.960859 27.4142 0.585786C27.0391 0.210714 26.5304 0 26 0ZM26 8H6V2H26V8ZM24 5C24 5.29667 23.912 5.58668 23.7472 5.83335C23.5824 6.08003 23.3481 6.27229 23.074 6.38582C22.7999 6.49935 22.4983 6.52906 22.2074 6.47118C21.9164 6.4133 21.6491 6.27044 21.4393 6.06066C21.2296 5.85088 21.0867 5.58361 21.0288 5.29264C20.9709 5.00166 21.0007 4.70006 21.1142 4.42597C21.2277 4.15189 21.42 3.91762 21.6666 3.7528C21.9133 3.58797 22.2033 3.5 22.5 3.5C22.8978 3.5 23.2794 3.65804 23.5607 3.93934C23.842 4.22064 24 4.60218 24 5ZM24 17C24 17.2967 23.912 17.5867 23.7472 17.8334C23.5824 18.08 23.3481 18.2723 23.074 18.3858C22.7999 18.4993 22.4983 18.5291 22.2074 18.4712C21.9164 18.4133 21.6491 18.2704 21.4393 18.0607C21.2296 17.8509 21.0867 17.5836 21.0288 17.2926C20.9709 17.0017 21.0007 16.7001 21.1142 16.426C21.2277 16.1519 21.42 15.9176 21.6666 15.7528C21.9133 15.588 22.2033 15.5 22.5 15.5C22.8978 15.5 23.2794 15.658 23.5607 15.9393C23.842 16.2206 24 16.6022 24 17Z" fill="#E2E4E9"/>
</g>
<defs>
<filter id="filter0_d_2149_2161" x="0" y="0" width="32" height="30" filterUnits="userSpaceOnUse" color-interpolation-filters="sRGB">
<feFlood flood-opacity="0" result="BackgroundImageFix"/>
<feColorMatrix in="SourceAlpha" type="matrix" values="0 0 0 0 0 0 0 0 0 0 0 0 0 0 0 0 0 0 127 0" result="hardAlpha"/>
<feOffset dy="4"/>
<feGaussianBlur stdDeviation="2"/>
<feComposite in2="hardAlpha" operator="out"/>
<feColorMatrix type="matrix" values="0 0 0 0 0 0 0 0 0 0 0 0 0 0 0 0 0 0 0.25 0"/>
<feBlend mode="normal" in2="BackgroundImageFix" result="effect1_dropShadow_2149_2161"/>
<feBlend mode="normal" in="SourceGraphic" in2="effect1_dropShadow_2149_2161" result="shape"/>
</filter>
</defs>
</svg>
