<svg width="44" height="41" viewBox="0 0 44 41" fill="none" xmlns="http://www.w3.org/2000/svg">
<g filter="url(#filter0_d_4112_6)">
<path d="M37 18.5H7C6.20435 18.5 5.44129 18.8161 4.87868 19.3787C4.31607 19.9413 4 20.7044 4 21.5V30.5C4 31.2956 4.31607 32.0587 4.87868 32.6213C5.44129 33.1839 6.20435 33.5 7 33.5H37C37.7956 33.5 38.5587 33.1839 39.1213 32.6213C39.6839 32.0587 40 31.2956 40 30.5V21.5C40 20.7044 39.6839 19.9413 39.1213 19.3787C38.5587 18.8161 37.7956 18.5 37 18.5ZM37 30.5H7V21.5H37V30.5ZM37 0.5H7C6.20435 0.5 5.44129 0.81607 4.87868 1.37868C4.31607 1.94129 4 2.70435 4 3.5V12.5C4 13.2956 4.31607 14.0587 4.87868 14.6213C5.44129 15.1839 6.20435 15.5 7 15.5H37C37.7956 15.5 38.5587 15.1839 39.1213 14.6213C39.6839 14.0587 40 13.2956 40 12.5V3.5C40 2.70435 39.6839 1.94129 39.1213 1.37868C38.5587 0.81607 37.7956 0.5 37 0.5ZM37 12.5H7V3.5H37V12.5ZM34 8C34 8.44501 33.868 8.88002 33.6208 9.25003C33.3736 9.62004 33.0222 9.90843 32.611 10.0787C32.1999 10.249 31.7475 10.2936 31.311 10.2068C30.8746 10.12 30.4737 9.90566 30.159 9.59099C29.8443 9.27632 29.63 8.87541 29.5432 8.43895C29.4564 8.0025 29.501 7.5501 29.6713 7.13896C29.8416 6.72783 30.13 6.37643 30.5 6.12919C30.87 5.88196 31.305 5.75 31.75 5.75C32.3467 5.75 32.919 5.98705 33.341 6.40901C33.7629 6.83097 34 7.40326 34 8ZM34 26C34 26.445 33.868 26.88 33.6208 27.25C33.3736 27.62 33.0222 27.9084 32.611 28.0787C32.1999 28.249 31.7475 28.2936 31.311 28.2068C30.8746 28.12 30.4737 27.9057 30.159 27.591C29.8443 27.2763 29.63 26.8754 29.5432 26.439C29.4564 26.0025 29.501 25.5501 29.6713 25.139C29.8416 24.7278 30.13 24.3764 30.5 24.1292C30.87 23.882 31.305 23.75 31.75 23.75C32.3467 23.75 32.919 23.9871 33.341 24.409C33.7629 24.831 34 25.4033 34 26Z" fill="#EABD5F"/>
</g>
<defs>
<filter id="filter0_d_4112_6" x="0" y="0.5" width="44" height="41" filterUnits="userSpaceOnUse" color-interpolation-filters="sRGB">
<feFlood flood-opacity="0" result="BackgroundImageFix"/>
<feColorMatrix in="SourceAlpha" type="matrix" values="0 0 0 0 0 0 0 0 0 0 0 0 0 0 0 0 0 0 127 0" result="hardAlpha"/>
<feOffset dy="4"/>
<feGaussianBlur stdDeviation="2"/>
<feComposite in2="hardAlpha" operator="out"/>
<feColorMatrix type="matrix" values="0 0 0 0 0 0 0 0 0 0 0 0 0 0 0 0 0 0 0.25 0"/>
<feBlend mode="normal" in2="BackgroundImageFix" result="effect1_dropShadow_4112_6"/>
<feBlend mode="normal" in="SourceGraphic" in2="effect1_dropShadow_4112_6" result="shape"/>
</filter>
</defs>
</svg>
